<svg viewBox="0 0 80 80" xmlns="http://www.w3.org/2000/svg">
  <defs>
    <linearGradient id="darkBase" x1="0%" y1="0%" x2="100%" y2="100%">
      <stop offset="0%" style="stop-color:#374151;stop-opacity:1" />
      <stop offset="100%" style="stop-color:#1f2937;stop-opacity:1" />
    </linearGradient>
    <linearGradient id="purpleAccent" x1="0%" y1="0%" x2="100%" y2="100%">
      <stop offset="0%" style="stop-color:#8b5cf6;stop-opacity:1" />
      <stop offset="100%" style="stop-color:#7c3aed;stop-opacity:1" />
    </linearGradient>
    <linearGradient id="darkGray" x1="0%" y1="0%" x2="100%" y2="100%">
      <stop offset="0%" style="stop-color:#4b5563;stop-opacity:1" />
      <stop offset="100%" style="stop-color:#374151;stop-opacity:1" />
    </linearGradient>
  </defs>
  
  <!-- Main clipboard/document -->
  <rect x="20" y="15" width="32" height="45" rx="4" fill="url(#darkBase)" stroke="url(#darkGray)" stroke-width="1.5"/>
  
  <!-- Clipboard clip at top -->
  <rect x="32" y="10" width="8" height="12" rx="2" fill="url(#darkGray)" stroke="url(#purpleAccent)" stroke-width="1"/>
  <rect x="34" y="12" width="4" height="8" rx="1" fill="url(#darkBase)"/>
  
  <!-- Code brackets integrated into the design -->
  <path d="M28 25 L25 28 L28 31" stroke="url(#purpleAccent)" stroke-width="2.5" fill="none" stroke-linecap="round" stroke-linejoin="round"/>
  <path d="M44 25 L47 28 L44 31" stroke="url(#purpleAccent)" stroke-width="2.5" fill="none" stroke-linecap="round" stroke-linejoin="round"/>
  
  <!-- Code lines representing snippets -->
  <line x1="25" y1="35" x2="42" y2="35" stroke="url(#darkGray)" stroke-width="2" stroke-linecap="round"/>
  <line x1="25" y1="39" x2="38" y2="39" stroke="url(#purpleAccent)" stroke-width="2" stroke-linecap="round" opacity="0.8"/>
  <line x1="27" y1="43" x2="45" y2="43" stroke="url(#darkGray)" stroke-width="2" stroke-linecap="round"/>
  <line x1="25" y1="47" x2="40" y2="47" stroke="url(#purpleAccent)" stroke-width="2" stroke-linecap="round" opacity="0.6"/>
  <line x1="29" y1="51" x2="44" y2="51" stroke="url(#darkGray)" stroke-width="2" stroke-linecap="round"/>
  
  <!-- Paperclip icon to represent "clipping" -->
  <path d="M55 20 C53.5 20 52 21.5 52 23 L52 45 C52 49 55 52 59 52 C63 52 66 49 66 45 L66 28 C66 27 65 26 64 26 C63 26 62 27 62 28 L62 43 C62 45 61 46 59 46 C57 46 56 45 56 43 L56 23 C56 22.5 55.5 22 55 22 C54.5 22 54 22.5 54 23 L54 40" 
        stroke="url(#purpleAccent)" 
        stroke-width="2" 
        fill="none" 
        stroke-linecap="round"/>
  
  <!-- Small indicator dots -->
  <circle cx="30" cy="28" r="1.5" fill="url(#purpleAccent)" opacity="0.7"/>
  <circle cx="42" cy="28" r="1.5" fill="url(#purpleAccent)" opacity="0.7"/>
</svg>
